<?xml version="1.0" standalone="no"?>
<!DOCTYPE svg PUBLIC "-//W3C//DTD SVG 20010904//EN"
 "http://www.w3.org/TR/2001/REC-SVG-20010904/DTD/svg10.dtd">
<svg version="1.0" xmlns="http://www.w3.org/2000/svg"
 width="605.000000pt" height="605.000000pt" viewBox="0 0 605.000000 605.000000"
 preserveAspectRatio="xMidYMid meet">
<metadata>
Created by potrace 1.14, written by Peter Selinger 2001-2017
</metadata>
<g transform="translate(0.000000,605.000000) scale(0.100000,-0.100000)"
fill="#000000" stroke="none">
<path d="M464 5365 c-12 -8 -24 -11 -28 -8 -3 3 -6 2 -6 -4 0 -6 -13 -16 -30
-23 -16 -7 -27 -17 -23 -23 3 -5 1 -7 -5 -3 -6 3 -16 0 -24 -7 -7 -7 -32 -24
-55 -37 -24 -13 -43 -27 -43 -32 0 -4 -7 -8 -15 -8 -8 0 -15 -4 -15 -9 0 -5
-11 -12 -25 -15 -14 -4 -23 -11 -20 -16 6 -9 -8 -14 -27 -11 -5 0 -8 -3 -8 -7
0 -5 -31 -31 -70 -58 l-70 -49 0 -2192 0 -2193 3025 0 3025 0 0 2155 c0 1365
-4 2155 -10 2155 -5 0 -28 18 -52 40 -24 21 -54 45 -67 52 -24 13 -55 37 -92
71 -10 9 -23 17 -29 17 -5 0 -10 5 -10 12 0 6 -3 9 -6 5 -3 -3 -11 -1 -18 4
-35 30 -122 89 -138 94 -10 4 -18 10 -18 14 0 8 -51 35 -59 31 -2 -1 -8 5 -13
14 -5 9 -13 14 -19 11 -5 -4 -9 -2 -9 3 0 31 -44 32 -2538 32 -2168 0 -2490
-2 -2508 -15z"/>
</g>
</svg>
