<?xml version="1.0" standalone="no"?>
<!DOCTYPE svg PUBLIC "-//W3C//DTD SVG 20010904//EN"
 "http://www.w3.org/TR/2001/REC-SVG-20010904/DTD/svg10.dtd">
<svg version="1.0" xmlns="http://www.w3.org/2000/svg"
 width="676.000000pt" height="676.000000pt" viewBox="0 0 676.000000 676.000000"
 preserveAspectRatio="xMidYMid meet">
<metadata>
Created by potrace 1.14, written by Peter Selinger 2001-2017
</metadata>
<g transform="translate(0.000000,676.000000) scale(0.100000,-0.100000)"
fill="#000000" stroke="none">
<path d="M2370 6748 c0 -7 9 -42 20 -78 50 -158 203 -701 245 -870 26 -102 58
-220 71 -262 l24 -77 33 14 c17 7 54 16 80 20 38 6 47 11 43 24 -3 9 -21 81
-41 161 -33 133 -81 293 -155 525 -46 144 -117 373 -145 468 l-26 87 -74 0
c-53 0 -75 -4 -75 -12z"/>
<path d="M3270 6527 c0 -129 3 -403 7 -610 l6 -377 87 0 87 0 6 338 c4 185 7
460 7 610 l0 272 -100 0 -100 0 0 -233z"/>
<path d="M4206 6728 c-7 -40 -50 -184 -163 -548 -124 -400 -180 -590 -187
-636 l-7 -41 48 -6 c26 -3 62 -9 80 -13 30 -6 33 -4 48 32 9 22 34 109 56 194
22 85 42 157 45 161 2 4 34 119 70 256 96 359 118 438 148 531 14 46 26 87 26
93 0 5 -35 9 -79 9 l-78 0 -7 -32z"/>
<path d="M1602 6734 c-55 -38 -50 -76 26 -204 24 -41 99 -172 165 -290 66
-118 172 -307 235 -420 63 -113 139 -250 169 -305 30 -55 66 -117 80 -137 24
-36 26 -37 52 -24 14 8 52 22 84 32 31 10 57 23 57 29 0 12 -143 259 -165 285
-40 47 -469 780 -545 929 -56 112 -103 144 -158 105z"/>
<path d="M3775 6726 c-17 -17 -24 -39 -29 -87 -4 -35 -22 -181 -41 -324 -19
-143 -39 -312 -46 -375 -7 -63 -20 -180 -29 -260 -10 -80 -17 -146 -16 -146 0
-1 23 -4 50 -5 48 -4 50 -3 58 26 5 17 20 127 34 245 14 118 38 310 54 425 69
507 65 462 47 488 -23 35 -55 40 -82 13z"/>
<path d="M5042 6733 c-12 -10 -69 -103 -128 -208 -58 -104 -114 -201 -124
-215 -9 -14 -57 -95 -105 -180 -49 -85 -150 -254 -225 -375 -138 -223 -204
-335 -198 -339 11 -8 179 -59 182 -55 2 2 20 36 41 74 102 190 551 978 633
1114 64 104 73 143 41 177 -27 29 -86 33 -117 7z"/>
<path d="M2905 6728 c-11 -6 -23 -16 -27 -22 -15 -22 -7 -108 32 -362 21 -143
49 -331 60 -419 43 -331 52 -390 58 -396 4 -3 26 -4 49 -1 l42 4 -5 62 c-2 33
-9 119 -14 189 -10 123 -43 390 -95 752 -21 144 -28 173 -46 188 -25 20 -27
20 -54 5z"/>
<path d="M2150 6420 c-20 -37 14 -100 54 -100 30 0 66 27 66 49 0 10 -9 30
-21 45 -26 33 -83 37 -99 6z"/>
<path d="M4496 6408 c-23 -33 -20 -65 9 -84 31 -20 61 -11 80 26 20 39 19 57
-4 70 -32 17 -69 12 -85 -12z"/>
<path d="M5580 6193 c-35 -38 -128 -147 -208 -243 -80 -96 -173 -204 -207
-240 -71 -74 -247 -276 -348 -399 -75 -91 -75 -88 -4 -127 l28 -15 108 113
c60 62 155 169 212 237 308 369 549 672 549 692 0 20 -31 49 -52 49 -9 0 -44
-30 -78 -67z"/>
<path d="M1040 6230 c-19 -19 -19 -23 -6 -48 8 -15 59 -79 112 -142 53 -63
166 -200 249 -305 84 -104 170 -211 191 -236 177 -208 276 -318 292 -324 13
-3 38 6 71 26 l52 32 -79 76 c-43 42 -159 170 -258 284 -98 115 -217 253 -264
306 -47 54 -134 155 -194 224 -66 76 -117 127 -128 127 -10 0 -27 -9 -38 -20z"/>
<path d="M4375 6129 c-20 -25 -25 -40 -23 -72 4 -57 27 -68 71 -34 19 14 40
40 46 57 9 28 8 34 -14 56 -32 32 -48 30 -80 -7z"/>
<path d="M2286 6134 c-13 -34 -6 -75 19 -99 67 -68 128 22 63 93 -25 26 -73
30 -82 6z"/>
<path d="M612 6025 c-35 -29 -44 -63 -26 -102 6 -15 92 -109 191 -208 207
-210 722 -711 753 -732 19 -13 24 -12 56 17 20 17 60 43 90 58 30 14 54 29 54
32 0 3 -11 12 -25 20 -13 9 -84 72 -157 141 -73 69 -198 183 -278 254 -80 71
-235 218 -345 326 -110 108 -210 201 -222 208 -33 17 -59 13 -91 -14z"/>
<path d="M6014 6028 c-16 -12 -105 -96 -199 -188 -155 -150 -255 -244 -573
-531 -59 -53 -134 -125 -167 -159 -55 -57 -59 -63 -41 -73 10 -7 45 -29 78
-50 33 -21 66 -36 72 -34 35 14 312 272 624 582 340 338 352 351 352 388 0 77
-82 114 -146 65z"/>
<path d="M1700 5787 c0 -26 7 -37 100 -162 195 -263 240 -322 258 -338 26 -24
66 -19 70 8 2 20 -114 186 -266 378 -96 122 -162 169 -162 114z"/>
<path d="M4948 5760 c-63 -52 -338 -423 -338 -457 0 -14 46 -37 60 -28 4 3 50
65 101 137 51 73 123 172 161 220 37 47 75 102 83 122 15 35 15 36 -8 36 -12
0 -39 -14 -59 -30z"/>
<path d="M6271 5541 c-12 -12 -21 -27 -21 -34 0 -18 21 -37 42 -37 22 0 51 42
46 67 -5 26 -43 28 -67 4z"/>
<path d="M386 5525 c-6 -17 29 -39 50 -31 12 4 12 10 4 26 -13 23 -45 27 -54
5z"/>
<path d="M6087 5412 c-23 -21 -94 -74 -157 -117 -63 -44 -149 -104 -190 -135
-42 -30 -121 -86 -178 -124 -56 -38 -125 -90 -154 -116 l-51 -46 46 -38 46
-38 93 68 c212 154 476 359 518 401 25 24 63 54 85 66 45 26 55 55 31 93 -22
33 -39 30 -89 -14z"/>
<path d="M546 5418 c-30 -43 -28 -45 434 -391 192 -145 309 -226 316 -220 6 4
27 19 47 33 20 14 37 28 37 32 0 19 -319 250 -597 432 -70 46 -139 96 -152
110 -30 32 -65 33 -85 4z"/>
<path d="M3150 5334 c-159 -15 -391 -59 -575 -111 -349 -97 -827 -330 -1127
-550 -333 -244 -672 -586 -961 -970 -73 -97 -202 -289 -213 -317 -5 -14 167
-273 251 -376 29 -36 90 -110 135 -165 118 -145 356 -392 484 -503 256 -221
539 -414 805 -547 407 -203 709 -294 1151 -345 221 -25 397 -25 592 0 459 59
858 196 1274 436 363 209 757 539 1036 868 160 189 468 601 468 627 0 32 -318
461 -481 649 -618 714 -1426 1181 -2224 1285 -115 15 -521 28 -615 19z m441
-224 c175 -18 482 -85 656 -144 369 -126 639 -280 1003 -573 231 -186 377
-330 474 -468 28 -39 65 -88 83 -109 70 -83 28 -51 -84 65 -273 281 -657 561
-1020 742 -206 103 -308 145 -509 205 -327 99 -498 126 -809 126 -121 0 -263
-5 -315 -12 -241 -31 -583 -124 -801 -218 -488 -208 -1031 -600 -1403 -1012
-196 -218 -189 -210 -175 -182 19 38 134 195 228 310 121 149 393 423 546 552
460 386 1070 654 1610 707 61 6 124 13 140 15 69 7 280 5 376 -4z m98 -324
c98 -18 358 -92 502 -142 296 -103 630 -285 924 -505 244 -182 427 -364 620
-619 22 -29 57 -73 78 -97 20 -24 37 -49 37 -54 0 -9 -63 -93 -182 -243 -148
-185 -314 -365 -345 -372 -13 -4 -23 -12 -23 -18 0 -18 -48 -59 -105 -92 -27
-15 -53 -34 -58 -41 -10 -17 -195 -158 -292 -224 -44 -29 -168 -97 -276 -150
-316 -156 -692 -275 -979 -310 -121 -15 -416 -6 -530 16 -264 51 -702 201
-905 309 -293 157 -356 198 -631 405 -105 79 -351 323 -420 416 -24 33 -70 93
-101 134 -79 101 -113 153 -113 172 0 28 159 240 267 357 434 465 1028 823
1660 1001 161 45 240 63 343 75 81 10 448 -3 529 -18z m-2420 -2146 c171 -145
159 -136 326 -252 298 -207 505 -316 822 -432 226 -82 320 -109 496 -141 365
-66 751 -54 1112 36 164 41 490 163 660 246 113 56 320 188 584 372 99 69 306
258 464 421 116 121 132 129 38 20 -31 -36 -74 -87 -96 -114 -44 -56 -266
-275 -337 -333 -25 -21 -90 -74 -145 -119 -54 -44 -123 -96 -153 -116 -30 -19
-95 -61 -145 -92 -212 -135 -409 -228 -680 -321 -73 -25 -319 -84 -390 -94
-126 -18 -477 -33 -604 -27 -180 9 -272 24 -556 88 -135 30 -428 144 -623 242
-374 187 -704 446 -997 782 -188 215 -189 218 -35 69 74 -72 191 -178 259
-235z"/>
<path d="M3205 4680 c-313 -36 -635 -193 -812 -397 -185 -215 -298 -436 -354
-698 -8 -36 -13 -132 -14 -240 0 -166 2 -188 28 -285 70 -262 201 -486 386
-663 239 -227 523 -340 891 -354 284 -11 511 44 739 179 117 69 185 123 271
215 151 161 238 303 309 500 61 170 74 246 74 413 0 272 -73 509 -232 750 -70
106 -251 289 -351 355 -99 65 -270 148 -356 174 -156 46 -418 69 -579 51z
m418 -174 c32 -9 65 -16 73 -16 19 0 198 -71 262 -105 26 -13 68 -41 94 -62
25 -21 62 -51 82 -66 l36 -28 -42 -35 c-95 -78 -320 -309 -364 -375 -26 -38
-53 -69 -59 -69 -7 0 -20 9 -30 20 -18 20 -18 22 -1 58 10 20 50 93 89 162 93
162 177 338 177 369 0 23 -1 24 -20 6 -39 -36 -190 -274 -255 -405 -38 -74
-69 -136 -70 -138 -2 -2 -51 17 -63 24 -2 1 12 45 32 96 67 179 127 460 107
496 -7 12 -11 11 -24 -9 -33 -50 -123 -341 -160 -512 l-10 -48 -41 7 c-23 3
-43 8 -44 9 -2 2 0 79 6 172 12 225 4 275 -41 257 -27 -10 -30 -33 -34 -239
l-3 -200 -31 0 -32 0 -43 154 c-24 85 -46 156 -48 159 -2 2 -12 -22 -21 -53
-20 -71 -13 -129 27 -209 l30 -60 -22 -18 c-40 -32 -53 -23 -94 67 -43 95 -63
106 -107 59 -21 -22 -22 -27 -8 -34 9 -5 35 -39 58 -74 47 -72 48 -101 4 -112
-22 -6 -32 1 -72 44 -25 29 -59 56 -75 62 -35 13 -116 4 -135 -14 -11 -12 -8
-17 20 -32 19 -9 65 -39 102 -65 38 -26 73 -49 79 -51 7 -3 6 -16 -3 -42 -21
-59 -31 -61 -86 -23 -87 61 -221 127 -299 147 -42 11 -80 17 -86 14 -16 -10
79 -73 189 -124 59 -27 130 -61 157 -75 27 -14 55 -25 63 -25 17 0 16 -12 -2
-56 -9 -22 -20 -34 -27 -31 -31 13 -125 41 -277 82 -157 43 -244 55 -255 36
-13 -21 229 -106 418 -145 65 -14 121 -27 124 -30 2 -3 1 -17 -2 -31 l-7 -26
-227 3 c-231 3 -292 -3 -292 -27 0 -32 41 -38 263 -36 121 1 224 4 229 7 5 3
15 0 23 -6 16 -13 20 -46 8 -53 -5 -3 -120 -35 -258 -71 -137 -37 -279 -81
-313 -98 -42 -20 -67 -27 -74 -20 -14 14 -38 194 -38 292 0 179 46 380 121
525 103 201 214 325 400 448 152 102 308 163 484 191 68 10 380 -2 438 -18z
m635 -370 c23 -30 42 -57 42 -61 0 -4 -7 -13 -16 -22 -21 -21 -10 -110 22
-182 25 -55 23 -71 -13 -94 -19 -12 -16 -55 5 -73 32 -28 93 -64 110 -64 32 0
-10 -20 -43 -20 -16 0 -64 -9 -105 -20 -210 -54 -309 -83 -348 -100 -45 -20
-45 -20 -55 30 -6 27 3 32 274 159 57 27 96 53 117 78 18 21 32 41 32 46 0 29
-162 -32 -285 -107 -44 -27 -101 -62 -127 -77 l-48 -28 -25 37 c-28 41 -25 47
38 86 47 28 136 99 136 109 1 4 -12 7 -29 7 -24 0 -28 3 -23 18 8 22 11 26
125 148 51 55 108 119 126 142 18 23 36 42 40 42 4 0 26 -24 50 -54z m-844
-469 c69 -53 96 -159 62 -240 -25 -61 -126 -126 -196 -127 -50 0 -133 42 -161
81 -17 24 -24 50 -27 96 -4 54 -1 69 22 107 48 82 111 117 202 113 49 -2 69
-8 98 -30z m816 -187 c0 -11 5 -20 10 -20 6 0 10 -5 10 -11 0 -13 38 -49 52
-49 4 0 8 -4 8 -10 0 -6 -78 -10 -215 -10 l-215 0 0 25 c0 28 -10 24 179 65
159 35 171 36 171 10z m-150 -187 c25 -4 37 -8 28 -10 -18 -5 -22 -14 -19 -45
3 -23 -5 -23 -116 5 -69 16 -93 26 -93 38 0 9 3 19 7 22 6 7 110 1 193 -10z
m-1190 -112 c5 -11 10 -24 10 -30 0 -5 -57 -40 -127 -77 -242 -127 -304 -164
-332 -198 -12 -14 -9 -16 27 -16 68 0 206 65 372 177 71 47 98 53 123 25 16
-17 15 -20 -11 -48 -15 -16 -85 -83 -157 -149 -71 -66 -162 -153 -203 -193
-60 -61 -75 -72 -87 -62 -8 7 -21 10 -29 7 -16 -6 -42 21 -70 73 -19 35 -19
35 1 18 11 -10 23 -18 26 -18 11 0 8 18 -6 32 -6 7 -23 30 -37 50 -16 24 -31
36 -45 35 -16 -2 -29 16 -63 88 -25 50 -45 104 -46 120 l-1 30 75 6 c75 6 294
62 465 119 108 35 102 35 115 11z m1066 -9 c38 -16 101 -39 139 -52 39 -12 74
-26 78 -30 5 -4 -29 -10 -75 -13 -77 -5 -88 -3 -148 25 -94 42 -109 54 -103
78 7 27 27 25 109 -8z m-132 -134 c7 -7 15 -20 19 -28 4 -8 18 -32 32 -52 14
-21 23 -38 19 -38 -13 0 -123 113 -118 121 8 13 34 11 48 -3z m-788 -163 c-18
-27 -53 -81 -78 -120 -25 -38 -71 -118 -103 -177 -31 -60 -62 -108 -68 -108
-20 0 -151 50 -172 66 -18 14 -19 16 -3 42 9 15 72 77 140 138 68 60 155 147
193 192 l70 82 26 -32 27 -32 -32 -51z m974 75 c30 -16 49 -29 42 -30 -7 0
-23 5 -35 12 -12 6 -35 14 -51 17 -16 4 -31 12 -34 19 -6 19 18 13 78 -18z
m-226 -49 c60 -73 65 -85 40 -95 -41 -16 -59 -5 -108 60 -46 63 -47 66 -30 85
9 10 23 19 29 19 7 0 38 -31 69 -69z m-629 -13 c29 -13 30 -25 9 -93 -8 -27
-31 -108 -50 -180 -48 -177 -52 -188 -78 -180 -12 4 -47 13 -78 22 l-57 15
107 214 c59 117 110 213 114 213 4 1 19 -4 33 -11z m504 -99 c56 -110 60 -126
34 -131 -35 -7 -73 4 -73 21 0 18 -42 137 -60 171 -10 18 -9 24 1 31 34 22 48
8 98 -92z m-164 19 c4 -24 15 -77 25 -118 10 -41 26 -111 35 -155 9 -44 18
-88 21 -98 5 -14 -5 -11 -43 16 -26 18 -62 38 -78 44 -28 9 -30 13 -37 79 -3
38 -8 113 -10 166 -3 91 -2 98 17 101 57 12 63 9 70 -35z m-171 5 c0 -13 -1
-102 -2 -198 -2 -197 2 -189 -84 -163 -34 10 -40 9 -52 -8 -27 -37 -28 -4 -2
88 14 51 35 136 46 188 27 126 24 122 62 118 27 -2 33 -7 32 -25z"/>
<path d="M5648 3333 c6 -2 18 -2 25 0 6 3 1 5 -13 5 -14 0 -19 -2 -12 -5z"/>
<path d="M5655 3233 c-43 -11 -40 -26 4 -20 48 6 83 28 41 26 -14 -1 -34 -3
-45 -6z"/>
<path d="M6560 5214 c-82 -51 -268 -161 -540 -320 -96 -56 -223 -131 -282
-166 l-108 -65 69 -67 69 -66 79 49 c418 263 709 438 806 487 69 36 87 57 87
104 0 50 -35 90 -78 90 -16 0 -59 -20 -102 -46z"/>
<path d="M26 5225 c-20 -18 -26 -34 -26 -65 0 -54 19 -72 150 -142 120 -64
516 -302 694 -418 l120 -77 60 58 c33 33 64 59 68 59 4 0 8 6 8 14 0 13 -205
137 -615 373 -110 63 -239 139 -286 169 -98 61 -132 67 -173 29z"/>
<path d="M380 4575 c-26 -69 -2 -88 218 -176 130 -51 159 -59 178 -50 13 6 24
14 24 19 0 40 -277 206 -377 227 -29 6 -34 4 -43 -20z"/>
<path d="M6289 4591 c-14 -5 -51 -25 -82 -45 -31 -19 -85 -50 -119 -67 -93
-47 -138 -80 -138 -100 0 -34 45 -34 113 -2 34 17 110 47 169 67 130 46 143
58 126 112 -14 41 -27 47 -69 35z"/>
<path d="M6455 4368 c-126 -44 -249 -87 -272 -95 -24 -8 -43 -21 -43 -28 0 -8
-6 -20 -14 -28 -12 -12 -10 -19 20 -52 19 -21 40 -48 48 -59 10 -16 16 -18 27
-10 13 11 59 28 309 115 63 22 123 46 135 52 11 7 36 16 55 22 35 11 35 11 38
76 l3 65 -43 -4 c-41 -4 -42 -3 -23 12 36 28 -3 17 -240 -66z"/>
<path d="M365 4289 c4 -19 15 -40 25 -47 23 -17 15 -46 -16 -61 -35 -16 -30
-27 23 -45 66 -23 114 -21 120 4 3 13 14 20 29 20 21 0 24 5 24 40 0 22 5 40
11 40 46 0 -75 47 -195 76 -28 7 -28 6 -21 -27z m35 0 c0 -5 -4 -9 -10 -9 -5
0 -10 7 -10 16 0 8 5 12 10 9 6 -3 10 -10 10 -16z"/>
<path d="M0 3902 l0 -68 108 -14 c59 -7 129 -18 155 -25 l48 -12 14 31 c8 17
22 43 32 58 9 15 14 30 11 33 -3 4 -78 18 -165 31 -87 13 -168 26 -180 29 -22
5 -23 3 -23 -63z"/>
<path d="M6545 3938 c-93 -16 -173 -32 -177 -36 -13 -13 55 -101 77 -101 11
-1 56 6 100 13 44 8 110 17 148 21 l67 7 0 64 c0 76 23 73 -215 32z"/>
<path d="M0 3375 l0 -105 50 0 c28 0 50 3 50 8 0 4 -14 27 -30 51 -17 24 -30
47 -30 51 0 3 11 21 25 40 36 49 33 60 -20 60 l-45 0 0 -105z"/>
<path d="M6650 3473 c0 -4 8 -16 19 -27 10 -12 26 -33 35 -47 16 -26 16 -27
-19 -69 -41 -49 -36 -60 33 -60 l42 0 0 105 0 105 -55 0 c-30 0 -55 -3 -55 -7z"/>
<path d="M175 2956 c-55 -13 -117 -26 -138 -30 l-37 -7 0 -70 c0 -62 2 -70 18
-65 9 3 85 19 167 36 83 16 160 32 173 35 l23 6 -25 32 c-14 18 -29 44 -35 60
-13 32 -16 32 -146 3z"/>
<path d="M6392 2915 c-20 -37 -27 -57 -19 -60 13 -4 313 -65 360 -73 l27 -4 0
69 0 68 -142 24 c-79 13 -155 26 -169 28 -23 4 -30 -2 -57 -52z"/>
<path d="M528 2675 c-3 -3 -122 -45 -264 -93 l-259 -87 -3 -92 c-1 -51 1 -93
5 -93 17 1 284 90 388 130 61 23 137 51 170 61 90 28 90 27 34 98 -27 35 -49
67 -49 72 0 10 -14 12 -22 4z"/>
<path d="M6165 2629 c-16 -27 -40 -60 -52 -71 l-23 -22 57 -23 c160 -66 579
-213 607 -213 3 0 6 40 6 90 l0 89 -43 19 c-23 10 -67 27 -97 36 -30 10 -89
30 -130 46 -41 16 -118 42 -170 58 -52 17 -102 33 -110 36 -10 4 -24 -10 -45
-45z"/>
<path d="M720 2405 c-65 -24 -262 -114 -287 -130 -28 -19 -29 -61 0 -79 14 -9
30 -4 80 23 34 19 115 60 179 92 64 33 119 63 122 68 6 9 -36 42 -51 40 -4 0
-24 -6 -43 -14z"/>
<path d="M5951 2396 l-23 -24 24 -15 c80 -49 332 -177 348 -177 12 0 25 10 32
25 17 38 -9 59 -170 137 -178 85 -181 86 -211 54z"/>
<path d="M965 2208 c-11 -6 -126 -75 -255 -153 -129 -78 -311 -186 -405 -240
-318 -183 -295 -165 -295 -234 0 -44 35 -83 74 -83 14 0 85 35 158 79 73 44
212 124 308 178 96 54 227 129 290 165 63 37 144 83 180 103 36 20 76 45 90
56 l25 20 -65 60 c-70 64 -74 66 -105 49z"/>
<path d="M5670 2159 l-64 -61 24 -19 c14 -11 50 -34 80 -51 30 -17 210 -121
400 -231 190 -110 381 -221 425 -247 104 -62 139 -67 180 -25 26 26 33 72 15
105 -5 10 -58 44 -117 75 -129 69 -307 173 -458 268 -160 102 -404 247 -413
247 -4 -1 -36 -28 -72 -61z"/>
<path d="M1275 1960 c-7 -11 -33 -32 -301 -237 -201 -154 -291 -228 -303 -251
-11 -21 19 -82 41 -82 7 0 45 25 83 56 39 31 108 83 155 115 298 204 438 311
439 335 1 6 -11 17 -25 24 -14 8 -30 22 -35 32 -11 20 -44 24 -54 8z"/>
<path d="M5390 1921 c-35 -31 -42 -42 -33 -52 6 -8 56 -47 110 -86 207 -153
300 -220 358 -260 33 -23 85 -62 115 -87 30 -25 62 -46 71 -46 8 0 26 11 39
25 22 24 23 28 10 50 -20 32 -577 478 -614 491 -6 2 -31 -14 -56 -35z"/>
<path d="M1070 1304 c-476 -475 -490 -490 -490 -527 0 -53 43 -97 95 -97 41 0
-17 -54 713 662 l343 336 -63 41 c-35 22 -73 48 -86 57 -23 17 -26 13 -512
-472z"/>
<path d="M5156 1771 c-10 -11 -47 -35 -82 -53 -35 -18 -64 -35 -64 -38 0 -9
623 -625 826 -817 193 -182 217 -198 272 -169 33 17 57 65 48 98 -3 13 -225
243 -494 511 -480 480 -488 488 -506 468z"/>
<path d="M1828 1548 c-33 -35 -113 -128 -178 -208 -66 -80 -134 -163 -153
-185 -45 -54 -428 -553 -450 -587 -20 -32 -22 -59 -5 -76 32 -32 58 -9 213
183 149 183 316 390 465 575 74 92 162 198 194 234 l59 67 -28 29 c-16 17 -35
30 -43 30 -7 0 -40 -28 -74 -62z"/>
<path d="M4811 1589 c-13 -11 -31 -24 -40 -29 -14 -7 -10 -15 25 -52 73 -76
557 -667 704 -859 107 -139 153 -183 179 -170 41 22 45 39 20 75 -192 272
-830 1057 -858 1056 -3 -1 -17 -10 -30 -21z"/>
<path d="M4610 1489 c0 -61 279 -450 353 -493 24 -15 49 -26 56 -26 20 0 -53
126 -159 275 -135 187 -195 255 -226 255 -13 0 -24 -5 -24 -11z"/>
<path d="M2036 1440 c-103 -97 -395 -515 -374 -535 11 -12 120 74 156 122 249
331 366 553 218 413z"/>
<path d="M2204 1263 c-48 -93 -92 -177 -99 -188 -7 -11 -65 -121 -130 -245
-139 -267 -210 -397 -316 -581 -44 -75 -82 -149 -85 -165 -8 -42 20 -74 71
-81 35 -4 44 -1 66 24 14 15 107 170 206 343 100 173 247 428 328 565 145 246
235 404 235 416 0 3 -19 11 -42 18 -24 7 -63 24 -87 37 -24 13 -47 24 -52 24
-4 0 -47 -75 -95 -167z"/>
<path d="M4407 1416 c-10 -8 -49 -24 -87 -36 -39 -12 -70 -25 -70 -28 0 -7 90
-166 210 -367 280 -474 456 -777 509 -881 44 -85 66 -104 121 -104 70 0 90 74
42 151 -23 36 -203 365 -390 709 -19 36 -74 137 -122 225 -48 88 -109 202
-135 253 -27 50 -51 92 -54 92 -3 0 -14 -7 -24 -14z"/>
<path d="M567 1400 c-35 -28 -36 -68 -1 -101 23 -22 27 -22 50 -9 65 38 70
122 8 128 -19 2 -40 -5 -57 -18z"/>
<path d="M6086 1388 c-22 -32 -20 -64 6 -82 32 -23 54 -20 77 10 29 36 26 51
-11 74 -42 25 -53 25 -72 -2z"/>
<path d="M3985 1295 c-16 -8 -54 -19 -82 -26 -61 -14 -62 -15 -33 -114 11 -39
38 -135 60 -215 22 -80 95 -324 162 -543 l123 -397 76 0 77 0 -28 103 c-15 56
-39 141 -53 187 -42 140 -143 533 -223 868 -20 83 -39 152 -42 151 -4 0 -20
-7 -37 -14z"/>
<path d="M2717 1293 c-3 -5 -33 -116 -67 -248 -136 -532 -142 -554 -259 -972
l-20 -73 78 0 78 0 28 102 c15 57 60 209 100 338 122 394 211 701 230 797 6
28 3 33 -17 37 -13 2 -47 9 -76 15 -63 13 -69 13 -75 4z"/>
<path d="M426 1248 c-17 -24 -21 -54 -8 -61 14 -9 64 40 60 59 -5 27 -34 29
-52 2z"/>
<path d="M6262 1258 c-20 -20 -14 -45 19 -72 38 -32 43 -32 57 0 11 23 9 29
-17 55 -33 32 -41 35 -59 17z"/>
<path d="M3665 1241 c-39 -6 -40 -7 -38 -46 9 -234 118 -1119 143 -1166 13
-22 57 -26 85 -5 21 15 18 49 -31 401 -12 94 -30 229 -38 300 -57 484 -63 526
-75 524 -3 -1 -24 -5 -46 -8z"/>
<path d="M3017 1153 c-9 -49 -18 -110 -21 -138 -18 -150 -69 -525 -86 -620
-10 -60 -26 -164 -35 -230 -15 -120 -15 -120 6 -137 12 -10 34 -18 50 -18 36
0 42 14 58 130 7 47 23 149 36 227 14 78 31 197 40 265 14 114 55 551 55 591
0 14 -9 17 -44 17 l-44 0 -15 -87z"/>
<path d="M3276 1136 c-3 -49 -6 -325 -6 -613 l0 -523 102 0 101 0 -6 383 c-4
210 -7 486 -7 614 l0 232 -89 -2 -88 -2 -7 -89z"/>
<path d="M2156 404 c-35 -34 -2 -88 50 -82 21 2 31 11 39 32 8 24 6 31 -14 47
-28 23 -54 24 -75 3z"/>
<path d="M4502 404 c-42 -29 -16 -104 37 -104 56 0 83 73 39 104 -28 20 -48
20 -76 0z"/>
</g>
</svg>
